HIERARCHY
ROOT root
{
	OFFSET	0	13.1	24.9
	CHANNELS 6  Xposition Yposition Zposition Xrotation Yrotation Zrotation
	JOINT spine_1
	{
		OFFSET	0	9.99999	0
		CHANNELS 3  Xrotation Yrotation Zrotation
		JOINT spine_2
		{
			OFFSET	0	112	-10
			CHANNELS 3  Xrotation Yrotation Zrotation
			JOINT spine_3
			{
				OFFSET	0	206.5	19.3
				CHANNELS 3  Xrotation Yrotation Zrotation
				JOINT spine_4
				{
					OFFSET	0	110.4	14.6
					CHANNELS 3  Xrotation Yrotation Zrotation
					JOINT neck_1
					{
						OFFSET	0	71.8	-50.3
						CHANNELS 3  Xrotation Yrotation Zrotation
						JOINT neck_2
						{
							OFFSET	0	86.2	-25.8
							CHANNELS 3  Xrotation Yrotation Zrotation
							JOINT head_ee
							{
								OFFSET	0	179.8	-8.7
								CHANNELS 3  Xrotation Yrotation Zrotation
								End Site
								{
									OFFSET	1	0	0
								}
							}
						}
					}
					JOINT left_clavicle
					{
						OFFSET	-43.2	22.4	-70.8
						CHANNELS 3  Xrotation Yrotation Zrotation
						JOINT left_shoulder
						{
							OFFSET	-93.9	-5.79999	48.7
							CHANNELS 3  Xrotation Yrotation Zrotation
							JOINT left_elbow
							{
								OFFSET	-291.4	-30.8	15.2
								CHANNELS 3  Xrotation Yrotation Zrotation
								JOINT left_lowarm_twist
								{
									OFFSET	-110.7	-3.89999	13.6
									CHANNELS 3  Xrotation Yrotation Zrotation
									JOINT left_hand
									{
										OFFSET	-110.7	-3.89999	13.6
										CHANNELS 3  Xrotation Yrotation Zrotation
										JOINT left_ee
										{
											OFFSET	-80.8	-5.10001	12.1
											CHANNELS 3  Xrotation Yrotation Zrotation
											End Site
											{
												OFFSET	1	0	0
											}
										}
									}
								}
							}
						}
					}
					JOINT right_clavicle
					{
						OFFSET	43.2	22.4	-70.8
						CHANNELS 3  Xrotation Yrotation Zrotation
						JOINT right_shoulder
						{
							OFFSET	93.9	-5.79999	48.7
							CHANNELS 3  Xrotation Yrotation Zrotation
							JOINT right_elbow
							{
								OFFSET	291.4	-30.8	15.2
								CHANNELS 3  Xrotation Yrotation Zrotation
								JOINT right_lowarm_twist
								{
									OFFSET	110.7	-3.89999	13.6
									CHANNELS 3  Xrotation Yrotation Zrotation
									JOINT right_hand
									{
										OFFSET	110.7	-3.89999	13.6
										CHANNELS 3  Xrotation Yrotation Zrotation
										JOINT right_ee
										{
											OFFSET	80.8	-5.10001	12.1
											CHANNELS 3  Xrotation Yrotation Zrotation
											End Site
											{
												OFFSET	1	0	0
											}
										}
									}
								}
							}
						}
					}
				}
			}
		}
	}
	JOINT left_hip
	{
		OFFSET	-82.8	-127.5	0.300001
		CHANNELS 3  Xrotation Yrotation Zrotation
		JOINT left_knee
		{
			OFFSET	-28.2	-396.7	2.2
			CHANNELS 3  Xrotation Yrotation Zrotation
			JOINT left_ankle
			{
				OFFSET	-11.7	-411.3	35.4
				CHANNELS 3  Xrotation Yrotation Zrotation
				JOINT left_toes
				{
					OFFSET	0	-60	-88.6
					CHANNELS 3  Xrotation Yrotation Zrotation
					JOINT left_foot_ee
					{
						OFFSET	-22.5	-16.5	-42.2
						CHANNELS 3  Xrotation Yrotation Zrotation
						End Site
						{
							OFFSET	1	0	0
						}
					}
				}
			}
		}
	}
	JOINT right_hip
	{
		OFFSET	82.8	-127.5	0.300001
		CHANNELS 3  Xrotation Yrotation Zrotation
		JOINT right_knee
		{
			OFFSET	28.2	-396.7	2.2
			CHANNELS 3  Xrotation Yrotation Zrotation
			JOINT right_ankle
			{
				OFFSET	11.7	-411.3	35.4
				CHANNELS 3  Xrotation Yrotation Zrotation
				JOINT right_toes
				{
					OFFSET	0	-60	-88.6
					CHANNELS 3  Xrotation Yrotation Zrotation
					JOINT right_foot_ee
					{
						OFFSET	22.5	-16.5	-42.2
						CHANNELS 3  Xrotation Yrotation Zrotation
						End Site
						{
							OFFSET	1	0	0
						}
					}
				}
			}
		}
	}
}
MOTION
Frames: 11
Frame Time: 0.02
1756.33 611.209 -487.126 39.1206 -85.9316 44.8215 -4.17812 -0.740367 -2.78749 -4.17397 -0.561564 -2.82891 -4.13832 0.253501 -2.87291 -4.14978 -0.203209 -2.8769 0.68034 -5.29846 -16.1201 1.44705 4.08281 -18.0886 -0.0 0.0 -0.0 10.207 23.0212 17.2367 24.5736 -33.6109 78.1241 2.90826 -55.2238 1.52141 -13.4404 -0.66245 1.58175 3.16105 13.3087 26.3382 -0.0 0.0 -0.0 9.61412 -9.43611 -18.1953 -8.58054 6.51401 -59.6445 0.397716 11.1457 -0.0388063 16.9038 -0.282785 2.13297 -0.449352 -10.2757 -1.37749 0.0 0.0 0.0 -14.1295 -5.90135 -14.0582 -43.1599 -0.67994 6.43488 -7.29743 23.7227 1.12226 40.196 -0.0 -0.0 -0.0 0.0 -0.0 42.2327 11.7594 -6.69654 -43.0289 0.670619 -6.417 13.9346 -8.65117 1.95254 1.92872 -0.0 -0.0 0.0 0.0 0.0 
1772.86 613.638 -482.711 53.7901 -87.2082 58.938 -3.96983 -0.639963 -2.60971 -3.96617 -0.472663 -2.64511 -3.93774 0.278046 -2.67256 -3.94768 -0.147368 -2.68294 0.924816 -4.3754 -14.683 1.57798 4.54662 -16.4596 -0.0 0.0 -0.0 10.0467 24.1726 16.774 22.9621 -32.3357 78.0777 2.73078 -53.5172 1.37714 -18.5574 -1.00946 2.13708 2.63637 18.6147 24.2197 -0.0 0.0 -0.0 9.66933 -8.82333 -18.3584 -6.37044 6.87277 -59.7842 0.426496 11.9299 -0.0445628 18.4741 -0.276884 2.33345 -0.628405 -7.99321 0.745255 0.0 0.0 0.0 -12.2258 -7.65687 -13.4494 -46.8925 -0.962423 6.93479 -18.737 22.2644 2.89602 33.8532 -0.0 -0.0 -0.0 0.0 -0.0 41.4847 12.0193 -7.27866 -43.2372 0.685456 -6.44541 18.064 -6.71086 2.48802 0.887816 -0.0 -0.0 0.0 0.0 0.0 
1792.7 617.07 -478.841 59.1603 -87.7951 64.0896 -3.77626 -0.400493 -2.48731 -3.77285 -0.241458 -2.50774 -3.75696 0.454556 -2.47801 -3.76552 0.0576249 -2.51867 -0.0630498 -4.45267 -15.9872 0.712929 5.27184 -17.7612 -0.0 0.0 -0.0 9.95284 25.0886 16.4584 20.8439 -32.0821 78.8077 2.56634 -51.8028 1.24638 -19.6331 -1.08866 2.2498 2.54456 21.3803 24.3349 -0.0 0.0 -0.0 9.45166 -7.15021 -18.093 -5.1647 6.83302 -60.5114 0.434311 12.142 -0.0461925 18.1088 -0.278747 2.28683 -0.682367 -8.31115 0.957456 0.0 0.0 0.0 -10.6607 -9.59856 -12.6089 -51.2264 -1.33065 7.49112 -22.8066 21.7905 3.52254 32.5846 -0.0 -0.0 -0.0 0.0 -0.0 40.5408 12.8738 -7.55271 -43.8262 0.727956 -6.52543 22.4896 -5.55977 3.03532 1.32527 -0.0 -0.0 0.0 0.0 0.0 
1815.6 618.532 -471.535 52.7879 -87.9888 57.3021 -3.6073 -0.467294 -2.28182 -3.60447 -0.321189 -2.30691 -3.58697 0.315918 -2.30764 -3.5944 -0.0523929 -2.32856 -0.544435 -5.14109 -16.6975 0.279791 4.51885 -18.5282 -0.0 0.0 -0.0 9.18425 24.7494 15.4101 17.8113 -31.8493 77.5015 2.35842 -49.4309 1.08564 -19.2202 -1.05801 2.20671 2.52889 18.4514 23.4553 -0.0 0.0 -0.0 9.4488 -7.29905 -18.0754 -3.66938 6.51816 -61.0139 0.465471 12.9846 -0.0529705 18.7784 -0.275106 2.37227 -0.671856 -8.60368 0.76351 0.0 0.0 0.0 -8.69942 -11.1839 -11.844 -54.7151 -1.65714 7.91804 -24.7001 22.3774 3.82466 30.6472 -0.0 -0.0 -0.0 0.0 -0.0 40.05 12.5078 -7.7506 -45.2865 0.836877 -6.72193 23.3361 -4.89747 3.1373 2.82362 -0.0 -0.0 0.0 0.0 0.0 
1837.63 619.793 -467.469 56.3207 -87.858 60.3825 -3.28673 -0.484288 -2.05054 -3.28446 -0.352854 -2.07719 -3.26808 0.211465 -2.0963 -3.27419 -0.122184 -2.10338 -0.193243 -5.2497 -17.2261 0.689241 4.86862 -19.1723 -0.0 0.0 -0.0 9.66865 25.1486 16.0365 14.2914 -31.5032 75.4513 2.11227 -46.2919 0.903045 -21.8182 -1.256 2.47412 2.21134 24.5805 22.9876 -0.0 0.0 -0.0 9.41387 -7.24745 -18.0128 -2.80326 7.65416 -61.1975 0.566461 15.6747 -0.0779724 17.9126 -0.279625 2.26179 -0.582496 -7.62324 0.606507 0.0 0.0 0.0 -5.46957 -13.22 -10.0985 -60.8736 -2.29505 8.62098 -25.2905 23.4468 3.93461 36.1583 -0.0 -0.0 -0.0 0.0 -0.0 36.8411 13.014 -7.57467 -43.8399 0.728953 -6.52728 29.556 -5.02954 3.84118 3.68492 -0.0 -0.0 0.0 0.0 0.0 
1860.71 622.888 -461.854 49.6253 -88.3472 53.3066 -3.03805 -0.447888 -1.85799 -3.03619 -0.328773 -1.88271 -3.02256 0.17487 -1.90318 -3.02759 -0.12784 -1.90691 -0.984253 -4.97414 -17.1531 -0.10826 5.07408 -18.9443 -0.0 0.0 -0.0 9.01357 25.147 15.0991 10.8466 -31.0229 73.9231 2.02879 -45.1378 0.843285 -21.6413 -1.24214 2.4562 2.10084 24.1242 22.1817 -0.0 0.0 -0.0 9.44814 -7.41473 -18.0646 -1.95939 8.01389 -61.378 0.609064 16.7894 -0.0898817 17.6075 -0.28082 2.22284 -0.545399 -7.61834 0.367995 0.0 0.0 0.0 -2.87021 -14.5375 -9.53288 -63.6173 -2.60299 8.91152 -25.5645 24.9553 4.00647 38.6357 -0.0 -0.0 -0.0 0.0 -0.0 35.2304 13.0926 -7.6531 -43.7488 0.722327 -6.51494 30.2293 -5.6175 3.91267 4.83628 -0.0 -0.0 0.0 0.0 0.0 
1879.4 626.508 -454.122 18.9057 -87.1393 21.9354 -2.89504 -0.4214 -1.59164 -2.89369 -0.31928 -1.61522 -2.88262 0.110072 -1.64278 -2.88636 -0.15072 -1.63955 0.506665 -5.56857 -16.8917 1.3463 4.21724 -18.9386 -0.0 0.0 -0.0 8.58547 24.8635 14.5349 8.63659 -30.5634 72.7417 1.72847 -40.5677 0.63887 -21.4177 -1.22469 2.43348 2.06736 24.8257 22.1487 -0.0 0.0 -0.0 9.43948 -6.74693 -18.102 -0.501212 8.62503 -61.8987 0.648573 17.8115 -0.101631 17.7388 -0.280331 2.2396 -0.496048 -7.64158 0.0380209 0.0 0.0 0.0 -0.36952 -16.6356 -8.35213 -66.7326 -2.96913 9.22328 -24.7384 24.7753 3.87365 39.8036 -0.0 -0.0 -0.0 0.0 -0.0 33.8859 13.3174 -7.20367 -43.6549 0.715507 -6.50219 29.6758 -4.45844 3.85501 5.23622 -0.0 -0.0 0.0 0.0 0.0 
1891.54 625.547 -449.552 29.8687 -88.8444 32.5667 -2.70869 -0.448474 -1.36509 -2.70773 -0.36071 -1.39086 -2.69743 0.00726333 -1.43684 -2.70024 -0.219727 -1.41996 0.578574 -5.54637 -16.3677 1.36229 3.82951 -18.3668 -0.0 0.0 -0.0 8.03388 25.084 13.7242 7.29096 -30.0271 71.6128 1.54681 -37.4583 0.524471 -20.8236 -1.17877 2.37281 2.06368 24.8949 22.143 -0.0 0.0 -0.0 9.39714 -5.84536 -18.0886 1.4902 9.41787 -62.302 0.705683 19.2684 -0.119792 17.967 -0.279391 2.26873 -0.4131 -7.6718 -0.512701 0.0 0.0 0.0 1.92752 -17.0049 -7.58625 -68.3158 -3.16159 9.37402 -24.6278 24.6005 3.85295 39.5257 -0.0 -0.0 -0.0 0.0 -0.0 32.4835 13.3192 -6.9727 -43.6647 0.716224 -6.50354 31.9925 -4.42075 4.09869 6.34721 -0.0 -0.0 0.0 0.0 0.0 
1908.08 633.981 -445.253 32.5942 -89.0824 34.9256 -2.73239 -0.340275 -1.17855 -2.73165 -0.264597 -1.19781 -2.725 0.051377 -1.2256 -2.72707 -0.142814 -1.21834 0.485778 -5.03525 -15.616 1.20724 4.0682 -17.4812 -0.0 0.0 -0.0 7.57411 24.9891 13.0925 5.65912 -29.6924 71.3106 1.28462 -32.4697 0.374077 -19.8964 -1.10837 2.27716 2.06508 24.8892 22.1504 -0.0 0.0 -0.0 9.64733 -5.44814 -18.6054 3.09361 9.88233 -62.5678 0.759335 20.6139 -0.138091 18.2665 -0.277979 2.30696 -0.338942 -7.93986 -1.10628 0.0 0.0 0.0 5.08032 -17.458 -6.02476 -69.9252 -3.36146 9.5218 -20.8994 24.5199 3.26657 40.0316 -0.0 -0.0 -0.0 0.0 -0.0 30.5765 13.4461 -6.65671 -42.9435 0.664574 -6.40536 29.9187 -3.77004 3.88268 6.68014 -0.0 -0.0 0.0 0.0 0.0 
1925.26 640.89 -440.688 38.6612 -88.7992 40.2232 -2.62846 -0.439955 -0.794805 -2.6282 -0.388489 -0.821188 -2.62204 -0.166567 -0.89304 -2.62302 -0.30551 -0.855531 0.701733 -5.28328 -14.6144 1.31768 2.8349 -16.4242 -0.0 0.0 -0.0 7.08115 25.2332 12.3803 4.38649 -28.7853 70.7734 1.05588 -27.6113 0.259467 -18.7991 -1.02707 2.16254 2.06509 24.8774 22.1475 -0.0 0.0 -0.0 9.6907 -4.82597 -18.7366 4.61972 10.6662 -63.5451 0.80035 21.6267 -0.152871 18.6162 -0.276079 2.35159 -0.190989 -7.94819 -2.06824 0.0 0.0 0.0 8.54408 -17.484 -4.34973 -70.4916 -3.43277 9.57247 -18.1303 24.1973 2.82594 40.1021 -0.0 -0.0 -0.0 0.0 -0.0 28.1758 13.5105 -6.12063 -42.5456 0.636611 -6.35092 30.587 -3.80932 3.95356 8.00432 -0.0 -0.0 0.0 0.0 0.0 
1940.66 650.236 -433.29 33.1975 -88.9403 34.2 -2.47619 -0.426846 -0.513354 -2.47613 -0.393316 -0.539474 -2.47217 -0.244595 -0.621209 -2.47255 -0.339632 -0.574786 0.174418 -4.61513 -13.057 0.66719 2.58195 -14.5936 -0.0 0.0 -0.0 5.82441 25.6712 10.6291 2.76227 -27.6567 70.3344 0.848866 -22.8067 0.171216 -16.9558 -0.89551 1.96659 2.089 24.2823 22.1475 -0.0 0.0 -0.0 10.0334 -4.13341 -19.4669 6.39903 11.2919 -63.9271 0.838008 22.5444 -0.16703 19.2047 -0.272267 2.42665 -0.0449111 -8.25252 -3.14018 0.0 0.0 0.0 10.7265 -18.1485 -2.00823 -70.5067 -3.43468 9.57381 -16.5024 23.943 2.56646 40.1891 -0.0 -0.0 -0.0 0.0 -0.0 26.1588 13.195 -5.91352 -40.7236 0.513445 -6.09928 31.1867 -4.97536 4.01425 9.66406 -0.0 -0.0 0.0 0.0 0.0 
